PathFileType        4      (X/Y/Z)      C:\Users\pc\Desktop\IMUTRC\Sujet_01\Sujet_01_velo_100.trc         
DataRate	CameraRate	NumFrames	NumMarkers	Units	OrigDataRate	OrigDataStartFrame	OrigNumFrames
60.0	60.0	4	64	mm	60.0	622	995
Frame#	Time	pHipOrigin			pRightASI			pLeftASI			pRightCSI			pLeftCSI			pRightIschialTub			pLeftIschialTub			pSacrum			pL5SpinalProcess			pL3SpinalProcess			pT12SpinalProcess			pIJ			pT4SpinalProcess			pT8SpinalProcess			pPX			pC7SpinalProcess			pTopOfHead			pRightAuricularis			pLeftAuricularis			pBackOfHead			pRightAcromion			pLeftAcromion			pRightArmLatEpicondyle			pRightArmMedEpicondyle			pLeftArmLatEpicondyle			pLeftArmMedEpicondyle			pRightUlnarStyloid			pRightRadialStyloid			pRightOlecranon			pLeftUlnarStyloid			pLeftRadialStyloid			pLeftOlecranon			pRightTopOfHand			pRightPinky			pRightBallHand			pLeftTopOfHand			pLeftPinky			pLeftBallHand			pRightGreaterTrochanter			pRightKneeLatEpicondyle			pRightKneeMedEpicondyle			pRightPatella			pLeftGreaterTrochanter			pLeftKneeLatEpicondyle			pLeftKneeMedEpicondyle			pLeftPatella			pRightTibialTub			pRightLatMalleolus			pRightMedMalleolus			pLeftTibialTub			pLeftLatMalleolus			pLeftMedMalleolus			pRightHeelFoot			pRightFirstMetatarsal			pRightFifthMetatarsal			pRightPivotFoot			pRightHeelCenter			pRightToe			pLeftHeelFoot			pLeftFirstMetatarsal			pLeftFifthMetatarsal			pLeftPivotFoot			pLeftHeelCenter			pLeftToe			
		X1	Y1	Z1	X2	Y2	Z2	X3	Y3	Z3	X4	Y4	Z4	X5	Y5	Z5	X6	Y6	Z6	X7	Y7	Z7	X8	Y8	Z8	X9	Y9	Z9	X10	Y10	Z10	X11	Y11	Z11	X12	Y12	Z12	X13	Y13	Z13	X14	Y14	Z14	X15	Y15	Z15	X16	Y16	Z16	X17	Y17	Z17	X18	Y18	Z18	X19	Y19	Z19	X20	Y20	Z20	X21	Y21	Z21	X22	Y22	Z22	X23	Y23	Z23	X24	Y24	Z24	X25	Y25	Z25	X26	Y26	Z26	X27	Y27	Z27	X28	Y28	Z28	X29	Y29	Z29	X30	Y30	Z30	X31	Y31	Z31	X32	Y32	Z32	X33	Y33	Z33	X34	Y34	Z34	X35	Y35	Z35	X36	Y36	Z36	X37	Y37	Z37	X38	Y38	Z38	X39	Y39	Z39	X40	Y40	Z40	X41	Y41	Z41	X42	Y42	Z42	X43	Y43	Z43	X44	Y44	Z44	X45	Y45	Z45	X46	Y46	Z46	X47	Y47	Z47	X48	Y48	Z48	X49	Y49	Z49	X50	Y50	Z50	X51	Y51	Z51	X52	Y52	Z52	X53	Y53	Z53	X54	Y54	Z54	X55	Y55	Z55	X56	Y56	Z56	X57	Y57	Z57	X58	Y58	Z58	X59	Y59	Z59	X60	Y60	Z60	X61	Y61	Z61	X62	Y62	Z62	X63	Y63	Z63	X64	Y64	Z64	
622	10.35	0.0	1250.01138	7.654112177073829E-14	39.33311999999999	1335.9045	136.8366200000001	97.44426000000001	1333.65351	-105.6781499999999	10.840299999999987	1400.94632	106.56670000000008	58.58503000000002	1399.05075	-92.8237999999999	-66.64121	1203.45139	37.200600000000065	-42.76884999999999	1202.50361	-62.494649999999936	-57.63724	1275.4239	-14.03907999999993	-13.80213	1364.81197	-5.6274799999999185	35.2458	1459.05745	10.425650000000092	82.16121	1543.7066	27.72274000000011	298.90804	1590.56277	114.14899000000014	195.12546	1675.33039	74.28274000000013	137.54746	1620.59575	49.93648000000012	223.26286	1512.31118	81.98350000000013	229.305	1703.29008	80.85800000000013	381.01001	1882.83631	104.67113000000016	291.32575	1827.62777	151.23112000000015	390.3694	1769.57587	86.42624000000016	314.72422	1803.5777	74.40121000000016	193.99996999999996	1648.91085	255.84301000000013	292.62896	1659.09956	-80.14715999999986	275.68727999999993	1428.25441	320.0555200000002	263.30681999999996	1404.91517	273.0216300000002	401.09123	1438.50234	-89.56578999999988	360.81032	1411.72739	-65.63418999999988	375.32328999999993	1267.0123	402.1574900000001	409.0289399999999	1274.2984	374.9086400000001	251.22254999999998	1416.88097	310.51842000000016	539.64571	1288.75214	-109.29157999999984	549.06433	1292.66176	-66.52273999999984	375.26406	1427.06967	-99.69524999999987	536.03227	1210.2636	453.1602300000001	456.89212999999995	1226.13902	456.4774800000001	408.85122999999993	1245.86482	412.64237000000014	696.91896	1251.78848	-26.952669999999838	644.37607	1262.74726	-87.31478999999985	577.20173	1271.51428	-93.00150999999985	-18.60030000000002	1246.99031	148.9208900000001	289.78559999999993	1140.77904	263.8991900000001	317.27139	1137.28407	202.7077500000001	313.30253999999996	1175.43246	233.2146200000001	23.635420000000018	1229.69322	-146.2552399999999	234.16240000000002	957.32319	-178.89462999999992	248.97156	954.30212	-113.37890999999992	269.52667	980.89937	-148.98012999999992	341.85459999999995	1103.99309	248.5569000000001	218.10926999999998	745.19682	231.25981000000007	242.92941999999996	744.30827	176.52516000000008	278.88606	917.04228	-164.3224099999999	111.00945000000003	578.32723	-202.11537999999996	130.55753000000004	567.72387	-146.25523999999993	187.42469999999997	616.06096	149.98715000000007	366.97093	597.40142	196.90256000000008	324.37978999999996	580.04509	272.1923200000001	368.15565999999995	585.13944	245.06194000000008	225.15842999999998	607.41241	169.29829000000007	432.60510999999997	577.55715	279.7746100000001	15.579230000000019	475.01854	-149.57248999999996	176.88058	393.15352	-104.13799999999995	170.24608000000003	378.22589	-190.86041999999995	195.42165000000003	373.54619	-145.89981999999995	52.069000000000024	451.85702	-148.38775999999996	261.11507	340.49215	-145.18897999999993	
623	10.367	0.0	1250.01138	7.654112177073829E-14	41.050989999999985	1335.01595	136.89585000000008	96.14105000000002	1334.30511	-106.2705199999999	12.143509999999987	1400.23548	107.45525000000009	57.459530000000015	1399.64311	-92.52761999999991	-66.16732	1203.21444	37.674500000000066	-43.53891999999999	1202.91826	-62.257699999999936	-57.75572	1275.48313	-13.150529999999929	-13.80213	1364.87121	-4.916639999999918	35.30503	1458.99822	11.136490000000093	82.33892	1543.58813	28.315110000000107	299.08575	1590.50354	114.80059000000014	195.42165	1675.27116	74.57892000000012	137.84364	1620.53651	50.351140000000115	223.44057	1512.25195	82.75357000000012	229.77889	1703.29008	81.09495000000013	382.84634	1881.94776	106.03357000000015	292.27354	1827.39082	151.64577000000014	391.43566	1768.56885	87.67021000000015	316.20514	1803.28151	74.99357000000016	194.77003999999997	1648.4962	256.2576600000001	292.92514	1659.27727	-79.67326999999986	276.22040999999996	1428.19517	321.29949000000016	263.42529999999994	1404.50052	274.56178000000017	401.44665	1438.79853	-87.78868999999987	360.98803	1412.0828	-64.09402999999988	375.56023999999996	1266.83459	403.6384000000001	409.2658799999999	1274.00222	376.3303200000001	251.57796999999997	1416.70326	311.88086000000015	539.76418	1288.98909	-108.10684999999984	549.1828	1292.78023	-65.33799999999984	375.501	1427.48433	-97.97738999999987	536.32846	1210.32284	454.7003800000001	457.12907999999993	1226.02055	458.0176300000001	409.1474099999999	1245.62787	414.1232900000001	697.15591	1252.02543	-25.886409999999838	644.49454	1263.04344	-86.18929999999985	577.37944	1271.75123	-91.81677999999985	-17.593280000000018	1244.44314	149.03936000000007	285.40208999999993	1119.86851	259.81186000000014	312.53246	1116.7882	198.4427100000001	310.57766	1154.22575	230.01584000000008	24.87938000000002	1231.52955	-146.6106599999999	249.03080000000003	970.1183	-178.47996999999992	262.65522	966.86029	-112.72730999999992	282.61797	994.93845	-147.49920999999992	339.1889499999999	1085.98515	245.5358300000001	234.99170999999998	720.67285	237.9535500000001	260.22652	719.54735	183.33737000000008	289.7856	928.17877	-163.3746299999999	98.56975000000003	602.96966	-208.21675999999997	116.39998000000001	590.29303	-152.17889999999994	207.38743999999997	590.05608	157.56944000000004	387.40757	576.07623	204.0109600000001	345.46802999999994	557.89059	279.47842000000014	389.06618999999995	563.99196	252.1703400000001	245.29888999999997	582.41455	176.76211000000006	453.93029999999993	558.00906	286.82377000000014	-0.6515999999999806	501.85274	-157.39172999999997	157.86562	414.301	-112.66806999999996	151.05341000000004	400.91352	-199.62744999999995	175.93279000000004	394.75291	-154.60760999999994	35.12732000000002	477.56572	-156.44393999999997	240.55996000000002	359.62559	-154.25218999999996	
624	10.383	0.0	1250.01138	7.654112177073829E-14	42.59113999999999	1333.65351	137.2512700000001	94.54166000000001	1335.66755	-106.6259399999999	13.150529999999986	1399.10998	108.81769000000008	55.860140000000015	1400.76861	-91.69829999999992	-65.57495	1202.62208	38.02992000000006	-44.190529999999995	1203.45139	-62.19845999999993	-57.99266	1275.48313	-12.143509999999928	-14.09832	1364.87121	-3.7911399999999182	35.00885	1458.99822	12.321220000000093	82.04273	1543.58813	29.381370000000107	298.90804	1590.62201	115.62990000000015	195.24394	1675.27116	75.11205000000012	137.60669	1620.53651	51.12121000000011	223.08515	1512.31118	83.93831000000013	229.71965	1703.40856	81.50960000000013	384.32726	1881.11845	106.98136000000015	292.98438	1827.33159	152.00119000000015	391.96879	1767.73954	88.55876000000016	317.09368	1803.1038	75.46747000000016	194.82927999999998	1648.91085	256.9092700000001	292.51048	1659.51421	-79.14013999999986	276.16116999999997	1428.7283	323.1950600000002	263.01063999999997	1404.73746	276.69430000000017	400.97275	1439.03547	-85.53768999999987	360.39566	1412.43822	-62.02074999999987	375.56023999999996	1267.42695	405.7116800000001	409.1474099999999	1274.53535	378.2851200000001	251.34101999999996	1417.11792	313.95414000000017	539.40876	1289.58145	-106.38898999999985	548.94586	1293.3726	-63.62013999999986	374.96787	1427.78051	-95.84486999999987	536.5654	1211.62605	456.8921300000001	457.3067899999999	1227.02757	460.0909100000001	409.20664999999997	1246.33871	416.1965700000001	697.03743	1253.09169	-24.346259999999837	644.31683	1263.99123	-84.64914999999985	577.14249	1272.46207	-90.15814999999986	-17.119390000000017	1240.29658	148.9208900000001	277.46437999999995	1092.8566	254.0659100000001	304.59476	1091.02027	192.63752000000008	304.77247	1126.9769	225.92851000000007	26.597250000000017	1233.95826	-146.84760999999992	266.56484	986.7638	-176.46591999999993	278.58987	983.2096	-110.41707999999991	297.78254	1013.00562	-144.2411999999999	333.38375999999994	1061.69813	241.74469000000008	246.60208999999998	691.76537	242.15935000000005	272.66621	690.52141	187.95783000000006	303.5285	942.98793	-161.18286999999992	90.63205000000004	632.58798	-213.48881999999998	106.62594000000001	618.01577	-157.33248999999998	220.95262999999997	561.03013	161.77524000000005	401.26894	549.12357	207.80210000000008	359.8032999999999	530.28632	283.3288100000001	403.16450999999995	536.98006	255.96148000000008	259.04179	553.80326	180.90867000000006	468.14708999999993	531.76723	290.3779600000001	-12.08426999999998	533.60357	-164.26317999999998	143.70807000000002	441.13519	-120.19111999999996	136.89585000000002	429.05092	-207.26896999999994	161.41982000000002	421.64634	-162.30836999999994	22.98381000000002	508.30953	-163.49309999999997	225.03996000000004	384.74192	-162.18989999999994	
625	10.4	0.0	1250.01138	7.654112177073829E-14	44.19052999999999	1332.3503	137.5474600000001	92.46838000000001	1337.38541	-107.0405899999999	13.979839999999985	1397.92525	110.29861000000008	53.727620000000016	1402.07181	-90.75051999999991	-64.74564	1201.852	38.503810000000065	-44.90136999999999	1203.92528	-62.07998999999994	-58.34808	1275.30542	-11.01800999999993	-14.69068	1364.81197	-2.4879399999999183	34.23877	1459.05745	13.565190000000092	81.27266	1543.7066	30.388390000000108	298.43415	1591.0959	115.57067000000015	194.59233	1675.62658	75.28976000000013	136.83662	1620.77346	51.713580000000114	222.49279	1512.60737	84.47144000000013	229.18652	1703.82321	81.33189000000013	384.91963	1880.8815	106.98136000000015	293.04361	1827.68701	151.52730000000014	391.96879	1767.44335	88.61800000000015	317.38987	1803.28151	75.11205000000015	194.59232999999998	1649.62169	257.2054500000001	291.0888	1660.16581	-79.25860999999986	275.8649899999999	1429.73532	324.85368000000017	262.41826999999995	1405.27059	278.70835000000017	399.55107	1439.62784	-84.53066999999987	359.03322	1413.14906	-60.83601999999987	375.44176999999996	1268.43398	407.5480200000001	409.0289399999999	1275.60161	380.06222000000014	250.92636999999996	1417.88799	315.7904800000002	538.52021	1290.82542	-105.20425999999985	547.99807	1294.61657	-62.435409999999855	373.54619	1428.37288	-94.71936999999987	536.74311	1213.46238	458.66923000000014	457.4252599999999	1228.50849	461.92725000000013	409.20664999999997	1247.52344	418.0329000000001	696.26736	1255.0465	-23.161519999999836	643.48752	1265.64985	-83.40517999999985	576.31318	1273.82451	-88.97341999999986	-16.882440000000017	1235.85383	148.62471000000008	267.2164399999999	1065.07462	247.1352200000001	294.58376	1064.65997	185.7660700000001	296.77552	1098.78026	220.8934000000001	27.841220000000018	1236.56467	-147.0253199999999	284.03964	1005.83799	-173.80026999999993	294.82071	1002.28379	-107.5144799999999	312.76941	1033.61997	-140.56851999999992	324.91291999999993	1036.34486	236.4726300000001	251.69643999999997	663.56874	242.69248000000005	278.41216	662.32477	188.78714000000005	317.38987	960.93662	-158.6949299999999	87.49250000000004	664.33881	-218.28697999999997	101.59082000000001	648.22645	-162.07141999999996	226.58010999999996	533.12968	161.24211000000005	406.95565	520.86769	206.91355000000007	365.5492499999999	501.37884	282.3217800000001	408.91045999999994	508.36877	254.9544600000001	264.66927	525.7251	180.25707000000006	473.83380999999997	502.919	289.19323000000014	-18.00793999999998	565.65059	-170.06836999999996	136.24425000000002	470.33885	-126.52943999999995	129.43204000000003	459.14313	-213.78499999999994	153.71906000000004	450.96847	-168.82439999999994	16.64549000000002	539.76418	-169.47599999999997	216.74683000000002	413.05703	-168.88362999999995	
